<svg xmlns="http://www.w3.org/2000/svg" xmlns:xlink="http://www.w3.org/1999/xlink" width="213" height="139" viewBox="0 0 213 139">
    <defs>
        <path id="a" d="M.063.094H13.88v16.841H.063z"/>
    </defs>
    <g fill="none" fill-rule="evenodd">
        <path fill="#54555E" d="M.487 82.139l-.264.028.03.264c.009.082 1.06 8.135 11.56 8.727.085.365.173.73.263 1.093l-.002.085.023-.004a72.984 72.984 0 0 0 1.656 5.632c-1.825-2.45-5.265-5.115-11.2-3.572l-.258.067.07.257c.02.075 2.003 6.998 10.964 6.998.561 0 1.153-.031 1.77-.089.138.346.277.69.42 1.034l.014.093.022-.008a72.825 72.825 0 0 0 2.474 5.319c-2.17-2.15-5.969-4.27-11.605-1.862l-.245.105.107.244c.028.064 2.498 5.467 9.58 5.467 1.208 0 2.554-.163 4.043-.531.187.321.378.641.57.96l.027.09.023-.011a73.514 73.514 0 0 0 3.242 4.894c-2.467-1.803-6.54-3.338-11.756-.117l-.227.14.143.225c.033.054 2.692 4.128 8.38 4.128 1.676 0 3.615-.358 5.827-1.273.236.293.473.584.712.873l.035.076.017-.012a74.017 74.017 0 0 0 3.93 4.351c-2.708-1.414-6.96-2.317-11.631 1.638l-.204.171.174.202c.037.043 2.639 2.962 7.222 2.962 2.04 0 4.474-.585 7.248-2.251.278.256.56.509.843.761l.042.064.015-.014a73.452 73.452 0 0 0 4.53 3.715c-2.888-.993-7.225-1.252-11.251 3.352l-.176.201.203.173c.039.032 2.372 1.972 6.02 1.972 2.343 0 5.228-.804 8.394-3.42.317.215.637.427.958.636l.04.045.01-.012a73.919 73.919 0 0 0 4.832 2.901l.174.094.918-.915-.31-.169a73.22 73.22 0 0 1-4.911-2.955c1.263-2.177 3.937-8.377-2.567-13.706l-.207-.169-.167.207c-.045.056-3.911 4.997-.152 11.534a73.786 73.786 0 0 1-5.48-4.424c1.58-1.978 5.12-7.697-.504-13.92l-.178-.198-.196.181c-.054.048-4.598 4.346-1.884 11.349a73.054 73.054 0 0 1-4.747-5.156c1.856-1.72 6.213-6.849 1.58-13.841l-.147-.222-.221.148c-.06.041-5.2 3.617-3.554 10.953a72.574 72.574 0 0 1-3.938-5.808c2.087-1.417 7.182-5.843 3.64-13.458l-.113-.241-.241.114c-.064.031-5.712 2.816-5.147 10.36a72.85 72.85 0 0 1-3.065-6.37c2.248-1.069 8.023-4.681 5.645-12.783l-.076-.256-.254.077c-.071.021-6.119 1.951-6.643 9.571a73.14 73.14 0 0 1-2.118-6.835c2.348-.702 8.683-3.394 7.533-11.814l-.036-.263-.263.038c-.072.01-6.429 1.036-8.028 8.639a72.241 72.241 0 0 1-1.114-7.227c2.363-.321 9.164-1.989 9.284-10.571l.003-.266-.267-.002c-.106 0-6.597.089-9.278 7.487a72.602 72.602 0 0 1-.125-4.105c0-1.119.03-2.235.08-3.346l.24.002c2.53 0 9.224-.799 10.59-9.073l.045-.262-.263-.041c-.076-.011-6.647-.929-10.395 6.211.229-2.556.589-5.086 1.081-7.581.508.092 1.286.197 2.228.197 3.087 0 7.846-1.127 9.925-7.538l.082-.253-.254-.079c-.071-.023-6.558-1.951-11.345 4.779a72.703 72.703 0 0 1 2.247-7.551c.746.261 2.25.693 4.05.693 2.947 0 6.68-1.157 9.156-6.112l.12-.238-.24-.117c-.069-.033-6.329-2.961-12.12 3.245a72.798 72.798 0 0 1 3.45-7.386c.838.454 2.977 1.455 5.564 1.455 2.646 0 5.75-1.048 8.39-4.801l.154-.218-.218-.151c-.064-.043-5.95-3.957-12.7 1.591a72.944 72.944 0 0 1 4.658-7.042c.808.625 3.447 2.441 6.798 2.441 2.316 0 4.97-.87 7.587-3.608l.183-.192-.194-.182c-.057-.053-5.412-4.918-13.058-.162a73.01 73.01 0 0 1 5.284-5.955c.187-.183.383-.357.571-.538.702.749 3.643 3.595 7.774 3.595 1.993 0 4.262-.662 6.69-2.54l.211-.163-.165-.209c-.05-.062-4.704-5.768-13.122-1.996a73.517 73.517 0 0 1 6.993-5.657c.634.922 3.599 4.813 8.5 4.813 1.665 0 3.55-.449 5.645-1.617l.231-.129-.132-.232c-.038-.067-3.796-6.408-12.69-3.921C44.241 12.982 50.155 8.22 46 .237L45.878 0l-.236.125c-.072.038-7.13 3.922-3.956 13.793a74.091 74.091 0 0 0-5.49 4.254c1.563-2.601 2.663-6.696-.865-11.54l-.158-.215-.214.159c-.065.048-6.515 4.975-1.8 14.334-.282.269-.56.541-.838.815l-.043.023.009.011c-.196.192-.394.383-.588.578a73.348 73.348 0 0 0-3.46 3.67c1.21-2.803 1.797-7.106-2.505-11.463l-.186-.19-.188.189c-.06.058-5.71 5.898.37 14.461-.231.293-.458.59-.684.885l-.073.057.018.016a72.534 72.534 0 0 0-3.378 4.796c.779-2.952.718-7.295-4.186-10.963l-.214-.159-.158.214c-.049.067-4.765 6.682 2.526 14.245-.186.324-.365.651-.545.978l-.064.066.02.012a73.649 73.649 0 0 0-2.623 5.238c.329-3.033-.384-7.314-5.776-10.209l-.235-.126-.125.235c-.038.073-3.714 7.316 4.625 13.71-.137.35-.269.703-.4 1.056l-.046.066.019.009a73.142 73.142 0 0 0-1.81 5.564c-.131-3.049-1.476-7.171-7.236-9.229l-.251-.09-.088.252c-.027.077-2.58 7.786 6.62 12.868-.084.369-.164.739-.241 1.11l-.033.067.018.005a73.494 73.494 0 0 0-.957 5.774c-.584-2.996-2.528-6.873-8.532-8.052l-.262-.051-.05.261c-.015.081-1.39 8.085 8.467 11.74-.026.376-.05.753-.07 1.131l-.024.073.019.003a73.103 73.103 0 0 0-.11 3.955c0 .641.016 1.278.033 1.916-1.021-2.878-3.52-6.439-9.648-6.711l-.267-.013L0 69.97c-.003.082-.167 8.203 10.13 10.35.029.372.061.744.095 1.114l-.015.089h.023c.187 1.955.453 3.893.792 5.812-1.44-2.694-4.444-5.84-10.538-5.196m212.025 0l.264.028-.03.264c-.01.082-1.06 8.135-11.559 8.727-.085.365-.173.73-.264 1.093l.002.085-.022-.004a72.99 72.99 0 0 1-1.657 5.632c1.825-2.45 5.265-5.115 11.2-3.572l.259.067-.07.257c-.02.075-2.003 6.998-10.965 6.998-.56 0-1.152-.031-1.769-.089-.138.346-.278.69-.42 1.034l-.014.093-.022-.008a73.247 73.247 0 0 1-2.474 5.319c2.17-2.15 5.969-4.27 11.605-1.862l.245.105-.107.244c-.029.064-2.499 5.467-9.58 5.467-1.21 0-2.555-.163-4.043-.531a93.11 93.11 0 0 1-.57.96l-.028.09-.022-.011a73.908 73.908 0 0 1-3.242 4.894c2.465-1.803 6.54-3.338 11.756-.117l.226.14-.142.225c-.033.054-2.694 4.128-8.38 4.128-1.676 0-3.616-.358-5.829-1.273-.234.293-.47.584-.711.873l-.035.076-.016-.012a74.374 74.374 0 0 1-3.93 4.351c2.708-1.414 6.96-2.317 11.631 1.638l.204.171-.175.202c-.037.043-2.638 2.962-7.222 2.962-2.04 0-4.473-.585-7.247-2.251-.278.256-.562.509-.844.761l-.042.064-.014-.014a73.772 73.772 0 0 1-4.532 3.715c2.89-.993 7.227-1.252 11.253 3.352l.175.201-.203.173c-.038.032-2.371 1.972-6.02 1.972-2.342 0-5.227-.804-8.393-3.42a72.23 72.23 0 0 1-.958.636l-.04.045-.01-.012a74.186 74.186 0 0 1-4.832 2.901l-.175.094-.917-.915.308-.169a73.243 73.243 0 0 0 4.913-2.955c-1.263-2.177-3.937-8.377 2.567-13.706l.207-.169.167.207c.045.056 3.91 4.997.15 11.534a73.188 73.188 0 0 0 5.481-4.424c-1.58-1.978-5.12-7.697.504-13.92l.18-.198.195.181c.054.048 4.598 4.346 1.883 11.349a72.578 72.578 0 0 0 4.747-5.156c-1.855-1.72-6.212-6.849-1.58-13.841l.148-.222.22.148c.06.041 5.202 3.617 3.555 10.953a73.108 73.108 0 0 0 3.938-5.808c-2.087-1.417-7.182-5.843-3.64-13.458l.112-.241.241.114c.065.031 5.713 2.816 5.147 10.36a72.858 72.858 0 0 0 3.066-6.37c-2.248-1.069-8.023-4.681-5.645-12.783l.075-.256.255.077c.069.021 6.118 1.951 6.642 9.571a72.837 72.837 0 0 0 2.117-6.835c-2.348-.702-8.682-3.394-7.531-11.814l.036-.263.262.038c.073.01 6.429 1.036 8.03 8.639a72.53 72.53 0 0 0 1.112-7.227c-2.363-.321-9.163-1.989-9.283-10.571l-.004-.266.268-.002c.106 0 6.596.089 9.277 7.487.077-1.363.125-2.73.125-4.105 0-1.119-.028-2.235-.08-3.346l-.24.002c-2.53 0-9.223-.799-10.59-9.073l-.044-.262.262-.041c.077-.011 6.647-.929 10.395 6.211a72.342 72.342 0 0 0-1.081-7.581c-.508.092-1.285.197-2.227.197-3.088 0-7.846-1.127-9.926-7.538l-.082-.253.254-.079c.072-.023 6.558-1.951 11.346 4.779a72.953 72.953 0 0 0-2.248-7.551c-.746.261-2.25.693-4.052.693-2.944 0-6.677-1.157-9.153-6.112l-.12-.238.24-.117c.068-.033 6.327-2.961 12.12 3.245a72.805 72.805 0 0 0-3.45-7.386c-.839.454-2.977 1.455-5.565 1.455-2.645 0-5.75-1.048-8.39-4.801l-.154-.218.22-.151c.062-.043 5.948-3.957 12.699 1.591a72.768 72.768 0 0 0-4.659-7.042c-.807.625-3.446 2.441-6.798 2.441-2.315 0-4.97-.87-7.586-3.608l-.184-.192.195-.182c.056-.053 5.41-4.918 13.058-.162a73.022 73.022 0 0 0-5.285-5.955c-.186-.183-.382-.357-.57-.538-.702.749-3.644 3.595-7.776 3.595-1.991 0-4.26-.662-6.689-2.54l-.21-.163.165-.209c.048-.062 4.704-5.768 13.121-1.996a73.378 73.378 0 0 0-6.992-5.657c-.634.922-3.6 4.813-8.5 4.813-1.665 0-3.55-.449-5.645-1.617l-.233-.129.132-.232c.04-.067 3.797-6.408 12.69-3.921C168.76 12.982 162.846 8.22 167 .237l.122-.237.237.125c.072.038 7.128 3.922 3.956 13.793a74.074 74.074 0 0 1 5.49 4.254c-1.564-2.601-2.663-6.696.865-11.54l.158-.215.213.159c.066.048 6.516 4.975 1.8 14.334.283.269.56.541.838.815l.043.023-.008.011c.196.192.394.383.587.578a73.37 73.37 0 0 1 3.462 3.67c-1.21-2.803-1.798-7.106 2.503-11.463l.187-.19.188.189c.059.058 5.71 5.898-.371 14.461.232.293.458.59.684.885l.073.057-.017.016a73.293 73.293 0 0 1 3.378 4.796c-.78-2.952-.718-7.295 4.186-10.963l.213-.159.159.214c.048.067 4.764 6.682-2.526 14.245.186.324.364.651.545.978l.064.066-.02.012a74.064 74.064 0 0 1 2.622 5.238c-.328-3.033.385-7.314 5.777-10.209l.235-.126.124.235c.038.073 3.714 7.316-4.624 13.71.137.35.268.703.398 1.056l.047.066-.018.009a72.691 72.691 0 0 1 1.81 5.564c.13-3.049 1.475-7.171 7.236-9.229l.251-.09.088.252c.026.077 2.58 7.786-6.62 12.868.083.369.164.739.24 1.11l.033.067-.018.005a73.03 73.03 0 0 1 .957 5.774c.584-2.996 2.529-6.873 8.533-8.052l.262-.051.049.261c.015.081 1.39 8.085-8.467 11.74.027.376.05.753.071 1.131l.024.073-.019.003c.071 1.313.11 2.631.11 3.955 0 .641-.017 1.278-.033 1.916 1.02-2.878 3.52-6.439 9.648-6.711l.266-.013.01.267c.003.082.167 8.203-10.13 10.35-.03.372-.061.744-.096 1.114l.016.089h-.023a73.22 73.22 0 0 1-.793 5.812c1.44-2.694 4.445-5.84 10.538-5.196"/>
        <path fill="#2F2849" d="M64.313 99.14c-1.211 0-2.17-.39-2.875-1.171-.705-.782-1.057-1.848-1.057-3.2 0-1.343.354-2.407 1.063-3.19.71-.783 1.665-1.175 2.868-1.175.985 0 1.815.28 2.49.841.677.56 1.061 1.294 1.155 2.2h-1.488a2.063 2.063 0 0 0-.741-1.277c-.397-.32-.869-.48-1.415-.48-.727 0-1.306.278-1.738.834-.431.557-.647 1.306-.647 2.248 0 .949.215 1.7.644 2.255.43.555 1.012.832 1.746.832.559 0 1.029-.143 1.41-.43.38-.287.63-.685.747-1.193h1.482c-.133.907-.523 1.618-1.172 2.133-.648.516-1.472.774-2.472.774zm9.58-.878c-.543.574-1.274.861-2.192.861-.918 0-1.648-.288-2.191-.864-.543-.576-.815-1.364-.815-2.364 0-.997.274-1.785.82-2.365.548-.58 1.276-.87 2.186-.87.914 0 1.644.29 2.189.87.545.58.817 1.368.817 2.365 0 1-.271 1.789-.814 2.367zm-3.305-.838c.273.363.644.545 1.113.545s.84-.182 1.113-.545c.274-.363.41-.873.41-1.53 0-.652-.136-1.16-.41-1.526-.273-.365-.644-.548-1.113-.548a1.32 1.32 0 0 0-1.11.548c-.276.365-.413.874-.413 1.527 0 .656.136 1.166.41 1.529zM75.686 99v-8.455h1.459V99h-1.46zm7.64-.738c-.543.574-1.273.861-2.191.861-.918 0-1.649-.288-2.192-.864-.543-.576-.814-1.364-.814-2.364 0-.997.273-1.785.82-2.365.547-.58 1.276-.87 2.186-.87.914 0 1.643.29 2.188.87.545.58.818 1.368.818 2.365 0 1-.272 1.789-.815 2.367zm-3.305-.838c.274.363.645.545 1.114.545.469 0 .84-.182 1.113-.545.273-.363.41-.873.41-1.53 0-.652-.137-1.16-.41-1.526-.273-.365-.644-.548-1.113-.548a1.32 1.32 0 0 0-1.11.548c-.276.365-.414.874-.414 1.527 0 .656.137 1.166.41 1.529zM85.078 99v-6.21h1.4v1.083h.03c.105-.379.288-.672.548-.879.26-.207.573-.31.94-.31.129 0 .281.02.457.058v1.319a1.72 1.72 0 0 0-.592-.082c-.414 0-.738.125-.972.375-.235.25-.352.593-.352 1.03V99h-1.459zm6.469 0v-1.008l4.488-6.129v-.04H91.67v-1.278h6.193v1.008l-4.465 6.129v.04h4.577V99h-6.428zm12.504-.738c-.543.574-1.274.861-2.192.861-.918 0-1.648-.288-2.191-.864-.543-.576-.814-1.364-.814-2.364 0-.997.273-1.785.82-2.365.547-.58 1.275-.87 2.185-.87.914 0 1.644.29 2.189.87.545.58.817 1.368.817 2.365 0 1-.271 1.789-.814 2.367zm-3.305-.838c.274.363.645.545 1.113.545.47 0 .84-.182 1.114-.545.273-.363.41-.873.41-1.53 0-.652-.137-1.16-.41-1.526-.274-.365-.645-.548-1.114-.548a1.32 1.32 0 0 0-1.11.548c-.275.365-.413.874-.413 1.527 0 .656.137 1.166.41 1.529zm9.996.838c-.543.574-1.273.861-2.191.861-.918 0-1.649-.288-2.192-.864-.543-.576-.814-1.364-.814-2.364 0-.997.273-1.785.82-2.365.547-.58 1.276-.87 2.186-.87.914 0 1.643.29 2.188.87.545.58.818 1.368.818 2.365 0 1-.272 1.789-.815 2.367zm-3.305-.838c.274.363.645.545 1.114.545.469 0 .84-.182 1.113-.545.274-.363.41-.873.41-1.53 0-.652-.136-1.16-.41-1.526-.273-.365-.644-.548-1.113-.548a1.32 1.32 0 0 0-1.11.548c-.276.365-.414.874-.414 1.527 0 .656.137 1.166.41 1.529zM112.495 99v-6.21h1.4v1.077h.03a1.79 1.79 0 0 1 .674-.873 1.886 1.886 0 0 1 1.095-.322c.438 0 .808.108 1.11.325.303.217.511.524.625.923h.035c.148-.383.395-.687.741-.911a2.14 2.14 0 0 1 1.192-.337c.614 0 1.105.19 1.474.568.37.38.554.88.554 1.5V99h-1.46v-3.902c0-.383-.096-.678-.29-.885-.193-.207-.467-.31-.822-.31-.352 0-.637.117-.856.35-.219.235-.328.538-.328.91V99h-1.418v-3.979c0-.343-.099-.616-.296-.817-.197-.201-.466-.302-.806-.302-.351 0-.638.122-.86.367-.224.244-.335.553-.335.928V99h-1.459zm16.29.14c-1.212 0-2.17-.39-2.875-1.171-.705-.782-1.057-1.848-1.057-3.2 0-1.343.354-2.407 1.063-3.19.709-.783 1.665-1.175 2.868-1.175.985 0 1.815.28 2.49.841.676.56 1.061 1.294 1.155 2.2h-1.489a2.063 2.063 0 0 0-.74-1.277c-.397-.32-.869-.48-1.416-.48-.726 0-1.305.278-1.737.834-.432.557-.648 1.306-.648 2.248 0 .949.215 1.7.645 2.255.43.555 1.012.832 1.746.832.559 0 1.028-.143 1.41-.43.38-.287.63-.685.746-1.193h1.483c-.133.907-.524 1.618-1.172 2.133-.649.516-1.473.774-2.473.774zm9.58-.878c-.544.574-1.274.861-2.192.861-.918 0-1.649-.288-2.192-.864-.543-.576-.814-1.364-.814-2.364 0-.997.273-1.785.82-2.365.547-.58 1.276-.87 2.186-.87.914 0 1.643.29 2.188.87.545.58.818 1.368.818 2.365 0 1-.272 1.789-.815 2.367zm-3.305-.838c.273.363.644.545 1.113.545s.84-.182 1.113-.545c.274-.363.41-.873.41-1.53 0-.652-.136-1.16-.41-1.526-.273-.365-.644-.548-1.113-.548a1.32 1.32 0 0 0-1.11.548c-.276.365-.414.874-.414 1.527 0 .656.137 1.166.41 1.529zM140.156 99v-8.455h1.46V99h-1.46zm7.64-.738c-.542.574-1.273.861-2.19.861-.919 0-1.649-.288-2.192-.864-.543-.576-.814-1.364-.814-2.364 0-.997.273-1.785.82-2.365.547-.58 1.275-.87 2.185-.87.915 0 1.644.29 2.189.87.545.58.817 1.368.817 2.365 0 1-.271 1.789-.814 2.367zm-3.304-.838c.274.363.645.545 1.113.545.47 0 .84-.182 1.114-.545.273-.363.41-.873.41-1.53 0-.652-.137-1.16-.41-1.526-.274-.365-.645-.548-1.114-.548a1.32 1.32 0 0 0-1.11.548c-.275.365-.413.874-.413 1.527 0 .656.137 1.166.41 1.529zM149.55 99v-6.21h1.4v1.083h.03c.105-.379.288-.672.547-.879.26-.207.574-.31.94-.31.13 0 .282.02.458.058v1.319a1.72 1.72 0 0 0-.592-.082c-.414 0-.738.125-.973.375-.234.25-.351.593-.351 1.03V99h-1.46zm-97.614 10.053c0-.782.28-1.423.843-1.925s1.282-.753 2.157-.753c.84 0 1.532.229 2.077.686.545.457.817 1.029.817 1.716 0 .473-.132.92-.395 1.34-.264.42-.7.936-1.31 1.549l-2.092 2.068v.03h3.926V115h-5.941v-1.02l3.11-3.093c.481-.492.806-.877.974-1.155a1.69 1.69 0 0 0 .252-.89c0-.352-.14-.649-.42-.89-.279-.243-.627-.364-1.045-.364-.442 0-.808.139-1.099.416a1.38 1.38 0 0 0-.436 1.043v.023h-1.418v-.017zm10.341 6.117c-1.03 0-1.84-.394-2.428-1.18-.588-.788-.882-1.863-.882-3.226 0-1.356.295-2.426.885-3.211.59-.785 1.398-1.178 2.425-1.178 1.028 0 1.834.392 2.42 1.175.586.783.88 1.852.88 3.208 0 1.36-.294 2.434-.88 3.225-.586.791-1.392 1.187-2.42 1.187zm0-1.236c.559 0 .994-.28 1.304-.838.31-.559.466-1.336.466-2.332 0-.989-.156-1.761-.469-2.318-.312-.556-.746-.835-1.3-.835-.555 0-.992.28-1.31.838-.319.559-.478 1.328-.478 2.309 0 .996.157 1.774.472 2.335.314.56.753.84 1.315.84zM68.84 115v-7.014h-.035l-2.186 1.535v-1.423l2.21-1.553h1.493V115H68.84zm6.422.17c-.778 0-1.443-.211-1.995-.633a2.582 2.582 0 0 1-1.011-1.652h1.5c.094.32.28.577.56.77.279.194.602.29.97.29.628 0 1.117-.282 1.467-.846.35-.565.519-1.355.507-2.37h-.024a2.07 2.07 0 0 1-.864 1.004c-.408.252-.884.378-1.427.378-.804 0-1.473-.265-2.007-.797-.533-.53-.8-1.197-.8-1.998 0-.855.299-1.56.894-2.115.596-.555 1.35-.832 2.265-.832.621 0 1.175.145 1.661.434.486.289.87.703 1.151 1.242.403.7.604 1.576.604 2.63 0 1.41-.305 2.512-.914 3.305-.61.793-1.455 1.19-2.537 1.19zm.04-4.242c.485 0 .89-.157 1.214-.469.324-.313.486-.701.486-1.166a1.62 1.62 0 0 0-.49-1.195 1.635 1.635 0 0 0-1.198-.487c-.472 0-.872.16-1.198.48-.326.321-.489.714-.489 1.179 0 .476.16.872.478 1.186.318.315.717.472 1.198.472zM82.217 115v-6.21h1.4v1.065h.03c.171-.375.422-.666.752-.873.33-.207.73-.31 1.199-.31.68 0 1.208.205 1.585.615.377.41.565.977.565 1.7V115h-1.459v-3.72c0-.446-.104-.786-.313-1.02-.21-.235-.519-.352-.93-.352-.417 0-.75.137-.998.41-.248.274-.372.635-.372 1.084V115h-1.46zm8.965-1.002c.418 0 .77-.124 1.057-.372.287-.248.43-.558.43-.929v-.474l-1.435.088c-.351.023-.624.11-.817.26a.717.717 0 0 0-.29.595c0 .254.097.456.29.606.193.15.448.226.765.226zm-.44 1.102c-.605 0-1.102-.174-1.491-.522-.389-.348-.583-.799-.583-1.353 0-.551.204-.987.612-1.307.409-.32.992-.504 1.75-.55l1.64-.095v-.445c0-.324-.103-.576-.308-.756-.205-.18-.489-.27-.852-.27-.34 0-.617.077-.832.23a.935.935 0 0 0-.393.62h-1.353c.03-.59.284-1.069.758-1.438.475-.37 1.101-.554 1.878-.554.77 0 1.386.188 1.849.563.463.375.694.875.694 1.5V115h-1.406v-.99h-.03a1.938 1.938 0 0 1-.796.794 2.307 2.307 0 0 1-1.137.296zm4.946-7.764h1.459v1.453h1.171v1.125h-1.171v3.229c0 .253.06.441.181.562.121.121.31.182.569.182.171 0 .31-.01.416-.03v1.114c-.176.039-.428.058-.756.058-.672 0-1.152-.129-1.439-.386-.287-.258-.43-.69-.43-1.295v-3.434h-.891v-1.125h.89v-1.453zM99.343 115v-6.21h1.459V115h-1.46zm1.3-7.254a.791.791 0 0 1-.574.229.786.786 0 0 1-.574-.232.758.758 0 0 1-.234-.56c0-.222.078-.41.234-.565a.786.786 0 0 1 .574-.231c.227 0 .42.077.577.231a.76.76 0 0 1 .238.566c0 .218-.08.406-.24.562zm6.323 6.516c-.543.574-1.274.861-2.192.861-.918 0-1.648-.288-2.191-.864-.543-.576-.814-1.364-.814-2.364 0-.997.273-1.785.82-2.365.547-.58 1.275-.87 2.185-.87.914 0 1.644.29 2.189.87.545.58.817 1.368.817 2.365 0 1-.271 1.789-.814 2.367zm-3.305-.838c.274.363.645.545 1.113.545.47 0 .84-.182 1.114-.545.273-.363.41-.873.41-1.53 0-.652-.137-1.16-.41-1.526-.274-.365-.645-.548-1.114-.548a1.32 1.32 0 0 0-1.11.548c-.275.365-.413.874-.413 1.527 0 .656.137 1.166.41 1.529zm5.057 1.576v-6.21h1.4v1.065h.03c.171-.375.422-.666.752-.873.33-.207.73-.31 1.199-.31.68 0 1.208.205 1.585.615.377.41.565.977.565 1.7V115h-1.459v-3.72c0-.446-.104-.786-.313-1.02-.21-.235-.519-.352-.93-.352-.417 0-.75.137-.998.41-.248.274-.372.635-.372 1.084V115h-1.46zm8.965-1.002c.418 0 .77-.124 1.057-.372.287-.248.43-.558.43-.929v-.474l-1.435.088c-.351.023-.624.11-.817.26a.717.717 0 0 0-.29.595c0 .254.097.456.29.606.193.15.448.226.765.226zm-.44 1.102c-.605 0-1.102-.174-1.491-.522-.389-.348-.583-.799-.583-1.353 0-.551.204-.987.612-1.307.408-.32.991-.504 1.75-.55l1.64-.095v-.445c0-.324-.103-.576-.308-.756-.205-.18-.489-.27-.852-.27-.34 0-.617.077-.832.23a.935.935 0 0 0-.393.62h-1.353c.03-.59.284-1.069.758-1.438.475-.37 1.101-.554 1.878-.554.77 0 1.386.188 1.849.563.463.375.694.875.694 1.5V115h-1.406v-.99h-.03a1.938 1.938 0 0 1-.796.794 2.307 2.307 0 0 1-1.137.296zm4.582-.1v-8.455h1.46V115h-1.46zm5.508 0v-5.086h-.85v-1.107h.85v-.551c0-.61.153-1.058.46-1.345.307-.287.794-.43 1.462-.43.3 0 .562.021.785.064v1.02a3.282 3.282 0 0 0-.463-.036c-.539 0-.808.256-.808.768v.51h1.242v1.107h-1.219V115h-1.459zm3.674 0v-6.21h1.459V115h-1.46zm1.3-7.254a.791.791 0 0 1-.574.229.786.786 0 0 1-.574-.232.758.758 0 0 1-.234-.56c0-.222.078-.41.234-.565a.786.786 0 0 1 .574-.231c.227 0 .42.077.578.231a.76.76 0 0 1 .237.566c0 .218-.08.406-.24.562zM133.69 115v-6.21h1.4v1.065h.03c.172-.375.423-.666.753-.873.33-.207.73-.31 1.198-.31.68 0 1.208.205 1.585.615.377.41.566.977.566 1.7V115h-1.46v-3.72c0-.446-.104-.786-.313-1.02-.209-.235-.518-.352-.928-.352-.418 0-.751.137-1 .41-.248.274-.372.635-.372 1.084V115h-1.459zm8.965-1.002c.418 0 .77-.124 1.058-.372.287-.248.43-.558.43-.929v-.474l-1.435.088c-.352.023-.624.11-.817.26a.717.717 0 0 0-.29.595c0 .254.096.456.29.606.193.15.448.226.764.226zm-.44 1.102c-.605 0-1.102-.174-1.49-.522-.39-.348-.583-.799-.583-1.353 0-.551.204-.987.612-1.307.408-.32.991-.504 1.749-.55l1.64-.095v-.445c0-.324-.102-.576-.307-.756-.205-.18-.49-.27-.853-.27-.34 0-.617.077-.832.23a.935.935 0 0 0-.392.62h-1.354c.032-.59.284-1.069.76-1.438.474-.37 1.1-.554 1.877-.554.77 0 1.386.188 1.849.563.463.375.694.875.694 1.5V115h-1.406v-.99h-.03a1.938 1.938 0 0 1-.796.794 2.307 2.307 0 0 1-1.137.296zm4.583-.1v-8.455h1.459V115h-1.46zm2.736 0v-6.21h1.46V115h-1.46zm1.301-7.254a.791.791 0 0 1-.574.229.786.786 0 0 1-.574-.232.758.758 0 0 1-.235-.56c0-.222.078-.41.235-.565a.786.786 0 0 1 .574-.231c.226 0 .419.077.577.231a.76.76 0 0 1 .237.566c0 .218-.08.406-.24.562zm1.271 2.824c0-.57.23-1.03.692-1.382.46-.352 1.068-.528 1.822-.528.727 0 1.317.179 1.773.536.455.358.692.824.711 1.398h-1.359a.844.844 0 0 0-.34-.633c-.203-.152-.474-.229-.814-.229-.32 0-.578.07-.774.208a.642.642 0 0 0-.293.548c0 .344.297.588.891.733l1.107.246c.622.144 1.065.347 1.33.61.266.26.399.622.399 1.083 0 .586-.246 1.06-.738 1.421s-1.131.542-1.916.542c-.774 0-1.396-.177-1.867-.53a1.904 1.904 0 0 1-.782-1.421h1.436a.934.934 0 0 0 .39.656c.216.152.508.229.875.229.356 0 .636-.068.841-.203a.625.625 0 0 0 .308-.547.536.536 0 0 0-.19-.431c-.128-.107-.341-.2-.642-.278l-1.131-.264c-1.152-.27-1.729-.857-1.729-1.764zm6.48-3.234h1.46v1.453h1.172v1.125h-1.172v3.229c0 .253.06.441.182.562.12.121.31.182.568.182.172 0 .31-.01.416-.03v1.114c-.176.039-.428.058-.756.058-.672 0-1.151-.129-1.438-.386-.288-.258-.431-.69-.431-1.295v-3.434h-.89v-1.125h.89v-1.453z"/>
        <path fill="#000" d="M104.202 64.266c2.515 0 3.396-.985 3.396-4.049 0-3.753-1.192-4.045-4.511-4.045h-2.204v8.094h3.319zm3.76 8.468l-2.775-7.588h-4.304v7.588h-.961V55.292h4.28c3.033 0 4.382 1.306 4.382 4.925 0 3.277-1.116 4.315-2.49 4.715L109 72.734h-1.039zm-37.027 0V55.292h.96v16.562h6.665v.88h-7.625zM66.58 64c0-6.338-1.168-8.123-3.943-8.123-2.776 0-3.943 1.785-3.943 8.123 0 6.338 1.168 8.122 3.943 8.122 2.775 0 3.943-1.785 3.943-8.122zm-8.898 0c0-6.684 1.479-9 4.955-9s4.954 2.316 4.954 9c0 6.683-1.478 9-4.954 9s-4.955-2.318-4.955-9zm-2.202 8.44c-1.192.345-2.385.533-3.398.533C48.556 72.973 47 70.71 47 64c0-6.71 1.556-8.974 5.083-8.974 1.013 0 2.206.187 3.398.532l-.129.826c-1.168-.346-2.335-.507-3.269-.507-2.93 0-4.045 2.052-4.045 8.123 0 6.072 1.116 8.122 4.045 8.122.934 0 2.101-.161 3.269-.508l.129.825zM112 72v-3.114l6.568-10.719v-.052h-6.46V55h10.812v3.141l-6.568 10.693v.052H123V72h-11zM132.244 63.987c0-5.066-.496-5.974-2.244-5.974-1.747 0-2.27.908-2.27 5.974 0 5.067.523 6 2.27 6 1.748 0 2.244-.933 2.244-6m-8.244 0c0-7.066 1.852-8.987 6-8.987s6 1.921 6 8.987c0 7.067-1.852 9.013-6 9.013s-6-1.947-6-9.013M146.244 63.987c0-5.066-.496-5.974-2.244-5.974-1.747 0-2.27.908-2.27 5.974 0 5.067.523 6 2.27 6 1.748 0 2.244-.933 2.244-6m-8.244 0c0-7.066 1.852-8.987 6-8.987s6 1.921 6 8.987c0 7.067-1.852 9.013-6 9.013s-6-1.947-6-9.013"/>
        <g transform="translate(153 55)">
            <mask id="b" fill="#fff">
                <use xlink:href="#a"/>
            </mask>
            <path fill="#000" d="M10.49 16.935V9.633c0-2.262.077-3.368.077-3.368h-.077s-.257 1.08-.745 2.443l-1.592 4.474H5.79L4.198 8.708c-.488-1.363-.72-2.443-.745-2.443h-.077s.077 1.106.077 3.368v7.302H.063V.094h3.98l2.903 8.87h.025L9.924.094h3.955v16.841h-3.39z" mask="url(#b)"/>
        </g>
        <path stroke="#D7172F" stroke-linecap="round" stroke-linejoin="round" stroke-width="2.799" d="M161.561 51.638c-4.059 1.524-123.298-31.223-110.617-15.223 10.096 12.74 44.493 17.992 46.093 25.826 1.602 7.83-14.105 13.637-15.275 9.247-1.17-4.386 18.854-28.774 44.097-33.09 21.572-3.683 39.172 10.998 35.702 13.24z"/>
    </g>
</svg>
