<?xml version="1.0" encoding="utf-8"?><svg xmlns="http://www.w3.org/2000/svg" xmlns:xlink="http://www.w3.org/1999/xlink"><symbol id="chat" viewBox="0 0 49 38" xmlns="http://www.w3.org/2000/svg"><style>.ast0{opacity:.749;enable-background:new}</style><path class="ast0" d="M13.2 37.8v-7.7C5.8 29.1 0 22.8 0 15.1 0 6.8 6.8 0 15.2 0h18.5C42.2 0 49 6.8 49 15.1s-6.8 15.1-15.2 15.1h-9.5l-11.1 7.6zm2-33.8C9 4 4 9 4 15.1s5 11.1 11.2 11.1h2v4l5.8-4h10.7c6.2 0 11.2-5 11.2-11.1C45 9 40 4 33.8 4H15.2z"/></symbol><symbol viewBox="0 0 53 29" id="next" xmlns="http://www.w3.org/2000/svg"><path d="M37.5 27.469l12.65-13.042L37.5 1.386m13 13.041H.738" fill="none" fill-rule="evenodd" stroke="#1B1F26" stroke-width="3"/></symbol><symbol viewBox="0 0 53 29" id="prev" xmlns="http://www.w3.org/2000/svg"><path d="M15.5 1.531L2.85 14.573 15.5 27.614m-13-13.041h49.762" fill="none" fill-rule="evenodd" stroke="#1B1F26" stroke-width="3"/></symbol></svg>