<svg xmlns="http://www.w3.org/2000/svg" width="53" height="53" viewBox="0 0 53 53">
    <path fill="#FFF" fill-rule="evenodd" d="M40.729 8.857a3.458 3.458 0 0 0-3.449 3.449c0 .905.37 1.795 1.013 2.439a3.478 3.478 0 0 0 2.436 1.008c.909 0 1.795-.37 2.438-1.008a3.479 3.479 0 0 0 1.011-2.439c0-.911-.368-1.801-1.011-2.439a3.455 3.455 0 0 0-2.438-1.01zM26.5 35.453c-4.938 0-8.956-4.016-8.956-8.953 0-4.936 4.018-8.954 8.956-8.954 4.937 0 8.953 4.018 8.953 8.954 0 4.937-4.018 8.953-8.953 8.953zm0-22.608c-7.532 0-13.66 6.125-13.66 13.655 0 7.531 6.128 13.659 13.66 13.659 7.529 0 13.656-6.128 13.656-13.659 0-7.53-6.127-13.655-13.656-13.655zm21.796 25.53c0 5.473-4.45 9.921-9.921 9.921h-23.75c-5.472 0-9.924-4.448-9.924-9.921V14.628c0-5.473 4.452-9.925 9.924-9.925h23.75c5.471 0 9.921 4.452 9.921 9.925v23.747zM38.375 0h-23.75C6.56 0 0 6.562 0 14.628v23.747C0 46.439 6.56 53 14.625 53h23.75C46.44 53 53 46.437 53 38.375V14.628C53 6.562 46.44 0 38.375 0z" opacity=".553"/>
</svg>
