<svg xmlns="http://www.w3.org/2000/svg" xmlns:xlink="http://www.w3.org/1999/xlink" width="203" height="79" viewBox="0 0 203 79">
    <defs>
        <path id="a" d="M0 .543h38.73v39.039H0z"/>
    </defs>
    <g fill="none" fill-rule="evenodd">
        <g transform="translate(0 -.543)">
            <mask id="b" fill="#fff">
                <use xlink:href="#a"/>
            </mask>
            <path fill="#FFF" d="M10.263 39.582H0C0 18.056 17.374.542 38.73.542v10.346c-15.696 0-28.467 12.872-28.467 28.694" mask="url(#b)"/>
        </g>
        <path fill="#FFF" d="M39 78.457V68.123c15.806 0 28.665-12.86 28.665-28.666H78c0 21.504-17.496 39-39 39M98.71 15.457H88v23h5.641V31.83h5.07c2.732 0 4.984-.788 6.695-2.343 1.721-1.568 2.594-3.533 2.594-5.843 0-2.312-.873-4.277-2.596-5.845-1.707-1.553-3.96-2.342-6.694-2.342zm-5.069 5.324h4.911c1.187 0 2.107.272 2.737.808.614.525.913 1.198.913 2.055 0 .856-.299 1.53-.913 2.054-.628.535-1.549.807-2.737.807h-4.91V20.78zM120.278 25.241h-2.395l-3.811-9.784H108l6.085 15.109h4.085l-3.178 7.891h5.908l9.1-23h-5.909zM131 38.457h5.596V20.78h8.808v17.676H151v-23h-20zM166.5 15.457c-3.529 0-6.524 1.17-8.905 3.483-2.386 2.314-3.595 5.179-3.595 8.517 0 3.338 1.21 6.204 3.595 8.517 2.381 2.313 5.376 3.483 8.904 3.483 3.527 0 6.524-1.17 8.905-3.483 2.387-2.314 3.596-5.18 3.596-8.517 0-3.337-1.209-6.202-3.596-8.517-2.38-2.312-5.378-3.483-8.905-3.483m4.735 16.854c-1.248 1.264-2.797 1.879-4.735 1.879-1.937 0-3.486-.615-4.733-1.88-1.25-1.268-1.86-2.854-1.86-4.853 0-1.972.625-3.604 1.86-4.853 1.247-1.265 2.796-1.88 4.733-1.88 1.938 0 3.487.615 4.735 1.88 1.235 1.25 1.86 2.883 1.86 4.853 0 1.998-.609 3.585-1.86 4.854M193.232 15.842h-10.885v22.586h5.732V31.92h5.153c2.777 0 5.066-.774 6.805-2.302 1.749-1.54 2.636-3.47 2.636-5.738 0-2.27-.887-4.2-2.637-5.74-1.737-1.524-4.026-2.3-6.804-2.3zm-5.153 5.229h4.992c1.206 0 2.14.266 2.78.792.626.517.93 1.177.93 2.018 0 .842-.304 1.503-.93 2.018-.637.525-1.572.792-2.78.792h-4.992v-5.62z"/>
        <path fill="#DB0046" d="M39.5 22.457c-9.112 0-16.5 7.387-16.5 16.5s7.388 16.5 16.5 16.5c9.113 0 16.5-7.387 16.5-16.5s-7.387-16.5-16.5-16.5m0 23.632a7.132 7.132 0 1 1 0-14.264 7.132 7.132 0 0 1 0 14.264"/>
        <path fill="#FFF" d="M142.069 49.966c-.551 0-1.006.154-1.365.462-.36.308-.572.714-.637 1.218h3.822c-.028-.522-.203-.933-.525-1.232-.322-.299-.754-.448-1.295-.448zm.266 4.48c.82 0 1.465-.219 1.932-.658l.35.882c-.607.551-1.396.826-2.366.826-1.027 0-1.843-.299-2.451-.896-.615-.597-.923-1.395-.923-2.394 0-.943.289-1.726.868-2.352.569-.625 1.362-.938 2.38-.938.84 0 1.535.271 2.086.812.56.532.839 1.223.839 2.072 0 .271-.022.523-.07.756h-4.843c.046.588.268 1.05.664 1.386.398.336.909.504 1.534.504zm-6.188-3.78l-3.641 4.69h-1.12v-6.3h1.12v4.69l3.64-4.69h1.12v6.3h-1.12v-4.69zm-6.79 4.69h-1.12v-2.66h-3.5v2.66h-1.12v-6.3h1.12v2.59h3.5v-2.59h1.12v6.3zm-10.305-.91c.626 0 1.167-.27 1.624-.812v-.798c-.391-.28-.863-.42-1.414-.42-.382 0-.702.091-.96.273a.886.886 0 0 0-.383.763c0 .308.1.551.3.728.202.178.479.266.833.266zm.197-4.522c-.57 0-1.148.154-1.737.462l-.294-.896a3.953 3.953 0 0 1 2.1-.574c.85 0 1.466.21 1.849.63.382.42.574 1.07.574 1.946v3.864h-1.065v-.812c-.494.607-1.166.91-2.015.91-.58 0-1.045-.175-1.401-.525-.354-.35-.531-.823-.531-1.42 0-.617.219-1.105.657-1.464.44-.359 1.013-.539 1.723-.539.662 0 1.185.135 1.567.406 0-.709-.097-1.218-.294-1.526-.195-.308-.573-.462-1.133-.462zm-7.588.182l-.071 1.05a9.574 9.574 0 0 1-.335 1.918c-.168.58-.341.99-.518 1.232h3.052v-4.2h-2.128zm-1.848 6.79h-1.051v-2.59h.785c.233-.289.438-.758.616-1.407a11.18 11.18 0 0 0 .349-2.177l.099-1.666h4.298v5.25h1.05v2.59h-1.05v-1.54h-5.096v1.54zm-4.564-1.4c-.476 0-.98-.079-1.512-.238-.514-.168-.878-.373-1.092-.616l.573-.84c.252.206.554.371.904.497.349.126.67.19.959.19.485 0 .882-.096 1.19-.288.308-.19.462-.44.462-.749a.674.674 0 0 0-.33-.602c-.22-.14-.52-.21-.902-.21h-1.064v-.91h.993c.318 0 .579-.086.785-.259a.802.802 0 0 0 .308-.637.765.765 0 0 0-.364-.665c-.243-.163-.57-.245-.981-.245-.662 0-1.292.233-1.89.7l-.433-.868c.252-.26.604-.466 1.057-.616.452-.149.93-.224 1.434-.224.747 0 1.328.15 1.744.448.415.3.623.714.623 1.246 0 .728-.37 1.223-1.106 1.484v.028c.41.047.733.208.966.483a1.5 1.5 0 0 1 .35 1.001c0 .58-.246 1.04-.735 1.38-.49.34-1.137.51-1.94.51zm-8.61-4.9c-.411.411-.616.948-.616 1.61 0 .663.2 1.2.602 1.61.41.42.933.63 1.568.63.634 0 1.155-.208 1.56-.623.407-.415.61-.954.61-1.617 0-.644-.206-1.18-.616-1.61-.402-.42-.92-.63-1.554-.63-.635 0-1.153.21-1.554.63zm1.554 4.9c-.99 0-1.802-.308-2.436-.924-.616-.634-.924-1.423-.924-2.366 0-.952.308-1.736.924-2.352.625-.625 1.437-.938 2.436-.938.999 0 1.806.313 2.422.938.625.616.938 1.4.938 2.352s-.313 1.741-.938 2.366c-.616.616-1.423.924-2.422.924zm-6.734-1.05c.728 0 1.33-.27 1.806-.812l.532.812c-.542.7-1.35 1.05-2.422 1.05-1.008 0-1.825-.299-2.451-.896-.615-.597-.923-1.395-.923-2.394 0-.924.303-1.703.91-2.338.606-.634 1.367-.952 2.282-.952 1.1 0 1.927.276 2.478.826l-.518.882c-.486-.438-1.088-.658-1.806-.658-.59 0-1.097.215-1.527.644-.42.42-.63.952-.63 1.596 0 .681.215 1.223.645 1.624.438.411.98.616 1.624.616zM117.639 68.28c.625 0 1.166-.271 1.624-.812v-.798c-.393-.28-.864-.42-1.414-.42-.383 0-.703.09-.96.273a.882.882 0 0 0-.385.763c0 .308.1.55.302.728.2.178.478.266.833.266zm.195-4.522c-.57 0-1.147.154-1.735.462l-.294-.896a3.947 3.947 0 0 1 2.1-.574c.849 0 1.464.21 1.847.63.383.42.575 1.069.575 1.946v3.864h-1.064v-.812c-.495.607-1.167.91-2.017.91-.58 0-1.044-.175-1.4-.525-.354-.35-.531-.824-.531-1.421 0-.616.219-1.104.658-1.463.438-.36 1.012-.54 1.722-.54.662 0 1.185.136 1.568.407 0-.71-.1-1.218-.295-1.526-.195-.308-.573-.462-1.134-.462zm-6.72.252h-2.31v-1.12h5.74v1.12h-2.31v5.18h-1.12v-5.18zm-8.526-4.34h1.05c.057.737.416 1.106 1.078 1.106.626 0 .967-.37 1.023-1.106h1.049c0 .569-.193 1.038-.581 1.407-.387.369-.884.553-1.491.553-.662 0-1.182-.18-1.56-.54-.378-.358-.568-.832-.568-1.42zm3.864 4.83l-3.64 4.69h-1.12v-6.3h1.12v4.69l3.64-4.69h1.12v6.3h-1.12V64.5zm-9.324 3.78c.626 0 1.167-.271 1.624-.812v-.798c-.392-.28-.863-.42-1.414-.42-.383 0-.702.09-.96.273a.881.881 0 0 0-.384.763c0 .308.1.55.3.728.202.178.48.266.834.266zm.197-4.522c-.57 0-1.148.154-1.737.462l-.294-.896a3.95 3.95 0 0 1 2.1-.574c.849 0 1.466.21 1.849.63.382.42.573 1.069.573 1.946v3.864h-1.064v-.812c-.494.607-1.166.91-2.015.91-.58 0-1.046-.175-1.401-.525-.354-.35-.531-.824-.531-1.421 0-.616.219-1.104.657-1.463.439-.36 1.013-.54 1.722-.54.663 0 1.185.136 1.568.407 0-.71-.097-1.218-.294-1.526-.195-.308-.573-.462-1.133-.462zm-5.867 4.522c.728 0 1.33-.271 1.806-.812l.532.812c-.541.7-1.348 1.05-2.422 1.05-1.007 0-1.824-.3-2.45-.896-.616-.597-.924-1.395-.924-2.394 0-.924.304-1.703.91-2.338.607-.634 1.368-.952 2.282-.952 1.1 0 1.927.276 2.478.826l-.518.882c-.485-.44-1.087-.658-1.805-.658-.59 0-1.098.215-1.527.644-.42.42-.63.952-.63 1.596 0 .68.215 1.223.644 1.624.439.41.98.616 1.624.616z"/>
    </g>
</svg>
