<?xml version="1.0" encoding="utf-8"?>
<!-- Generator: Adobe Illustrator 23.0.3, SVG Export Plug-In . SVG Version: 6.00 Build 0)  -->
<svg version="1.1" id="Слой_1" xmlns="http://www.w3.org/2000/svg" xmlns:xlink="http://www.w3.org/1999/xlink" x="0px" y="0px"
	 viewBox="0 0 49 38" style="enable-background:new 0 0 49 38;" xml:space="preserve">
<style type="text/css">
	.st0{opacity:0.749;enable-background:new    ;}
</style>
<path class="st0" d="M13.2,37.8v-7.7C5.8,29.1,0,22.8,0,15.1C0,6.8,6.8,0,15.2,0h18.5C42.2,0,49,6.8,49,15.1
	c0,8.3-6.8,15.1-15.2,15.1v0h-9.5L13.2,37.8z M15.2,4C9,4,4,9,4,15.1c0,6.1,5,11.1,11.2,11.1h2v4l5.8-4h10.7c6.2,0,11.2-5,11.2-11.1
	C45,9,40,4,33.8,4H15.2z"/>
</svg>
