<?xml version="1.0" encoding="utf-8"?>
<!-- Generator: Adobe Illustrator 23.0.3, SVG Export Plug-In . SVG Version: 6.00 Build 0)  -->
<svg version="1.1" id="Слой_1" xmlns="http://www.w3.org/2000/svg" xmlns:xlink="http://www.w3.org/1999/xlink" x="0px" y="0px"
	 viewBox="0 0 53 53" style="enable-background:new 0 0 53 53;" xml:space="preserve">
<style type="text/css">
	.st0{fill-rule:evenodd;clip-rule:evenodd;fill:#FFFFFF;enable-background:new    ;}
</style>
<path class="st0" d="M40.7,8.9c-1.9,0-3.4,1.5-3.4,3.4c0,0.9,0.4,1.8,1,2.4c0.6,0.6,1.5,1,2.4,1c0.9,0,1.8-0.4,2.4-1
	c0.6-0.6,1-1.5,1-2.4c0-0.9-0.4-1.8-1-2.4C42.5,9.2,41.6,8.9,40.7,8.9z M26.5,35.5c-4.9,0-9-4-9-9c0-4.9,4-9,9-9c4.9,0,9,4,9,9
	C35.5,31.4,31.4,35.5,26.5,35.5z M26.5,12.8c-7.5,0-13.7,6.1-13.7,13.7c0,7.5,6.1,13.7,13.7,13.7c7.5,0,13.7-6.1,13.7-13.7
	C40.2,19,34,12.8,26.5,12.8z M48.3,38.4c0,5.5-4.5,9.9-9.9,9.9H14.6c-5.5,0-9.9-4.4-9.9-9.9V14.6c0-5.5,4.5-9.9,9.9-9.9h23.8
	c5.5,0,9.9,4.5,9.9,9.9V38.4z M38.4,0H14.6C6.6,0,0,6.6,0,14.6v23.7C0,46.4,6.6,53,14.6,53h23.8C46.4,53,53,46.4,53,38.4V14.6
	C53,6.6,46.4,0,38.4,0z"/>
</svg>
