<?xml version="1.0" encoding="utf-8"?>
<!-- Generator: Adobe Illustrator 23.0.3, SVG Export Plug-In . SVG Version: 6.00 Build 0)  -->
<svg version="1.1" id="Слой_1" xmlns="http://www.w3.org/2000/svg" xmlns:xlink="http://www.w3.org/1999/xlink" x="0px" y="0px"
	 viewBox="0 0 70 41" style="enable-background:new 0 0 70 41;" xml:space="preserve">
<style type="text/css">
	.st0{fill-rule:evenodd;clip-rule:evenodd;fill:#FFFFFF;enable-background:new    ;}
</style>
<path class="st0" d="M34.2,40.8h4.2c0,0,1.3-0.1,1.9-0.9c0.6-0.7,0.6-1.9,0.6-1.9s-0.1-5.8,2.5-6.6c2.6-0.8,5.9,5.6,9.4,8
	c2.6,1.9,4.7,1.5,4.7,1.5l9.3-0.1c0,0,4.9-0.3,2.6-4.3c-0.2-0.3-1.3-2.9-7-8.3c-5.9-5.6-5.1-4.7,2-14.3c4.3-5.9,6-9.5,5.5-11
	c-0.5-1.5-3.7-1.1-3.7-1.1L55.7,1.9c0,0-0.8-0.1-1.4,0.2c-0.6,0.3-0.9,1.2-0.9,1.2s-1.7,4.6-3.9,8.4c-4.7,8.2-6.6,8.6-7.3,8.1
	c-1.8-1.2-1.3-4.8-1.3-7.3c0-7.9,1.2-11.2-2.3-12.1c-1.1-0.3-2-0.5-4.9-0.5c-3.8,0-6.9,0-8.7,0.9c-1.2,0.6-2.1,1.9-1.6,2
	c0.7,0.1,2.3,0.4,3.1,1.6c1.1,1.5,1,4.9,1,4.9s0.6,9.3-1.4,10.5c-1.4,0.8-3.4-0.8-7.5-8.2c-2.1-3.8-3.8-8-3.8-8s-0.3-0.8-0.9-1.2
	c-0.7-0.5-1.6-0.7-1.6-0.7l-10,0.1c0,0-1.5,0-2.1,0.7c-0.5,0.6,0,1.8,0,1.8S8,23.2,16.9,32.7C25,41.4,34.2,40.8,34.2,40.8"/>
</svg>
