<?xml version="1.0" encoding="utf-8"?><svg xmlns="http://www.w3.org/2000/svg" xmlns:xlink="http://www.w3.org/1999/xlink"><symbol id="chat" viewBox="0 0 49 38" xmlns="http://www.w3.org/2000/svg"><style>.ast0{opacity:.749;enable-background:new}</style><path class="ast0" d="M13.2 37.8v-7.7C5.8 29.1 0 22.8 0 15.1 0 6.8 6.8 0 15.2 0h18.5C42.2 0 49 6.8 49 15.1s-6.8 15.1-15.2 15.1h-9.5l-11.1 7.6zm2-33.8C9 4 4 9 4 15.1s5 11.1 11.2 11.1h2v4l5.8-4h10.7c6.2 0 11.2-5 11.2-11.1C45 9 40 4 33.8 4H15.2z"/></symbol><symbol id="instagram" viewBox="0 0 53 53" xmlns="http://www.w3.org/2000/svg"><style>.bst0{fill-rule:evenodd;clip-rule:evenodd;fill:#fff;enable-background:new}</style><path class="bst0" d="M40.7 8.9c-1.9 0-3.4 1.5-3.4 3.4 0 .9.4 1.8 1 2.4.6.6 1.5 1 2.4 1 .9 0 1.8-.4 2.4-1 .6-.6 1-1.5 1-2.4 0-.9-.4-1.8-1-2.4-.6-.7-1.5-1-2.4-1zM26.5 35.5c-4.9 0-9-4-9-9 0-4.9 4-9 9-9 4.9 0 9 4 9 9 0 4.9-4.1 9-9 9zm0-22.7c-7.5 0-13.7 6.1-13.7 13.7 0 7.5 6.1 13.7 13.7 13.7 7.5 0 13.7-6.1 13.7-13.7 0-7.5-6.2-13.7-13.7-13.7zm21.8 25.6c0 5.5-4.5 9.9-9.9 9.9H14.6c-5.5 0-9.9-4.4-9.9-9.9V14.6c0-5.5 4.5-9.9 9.9-9.9h23.8c5.5 0 9.9 4.5 9.9 9.9v23.8zM38.4 0H14.6C6.6 0 0 6.6 0 14.6v23.7C0 46.4 6.6 53 14.6 53h23.8c8 0 14.6-6.6 14.6-14.6V14.6C53 6.6 46.4 0 38.4 0z"/></symbol><symbol viewBox="0 0 53 29" id="next" xmlns="http://www.w3.org/2000/svg"><path d="M37.5 27.469l12.65-13.042L37.5 1.386m13 13.041H.738" fill="none" fill-rule="evenodd" stroke="#1B1F26" stroke-width="3"/></symbol><symbol viewBox="0 0 53 29" id="prev" xmlns="http://www.w3.org/2000/svg"><path d="M15.5 1.531L2.85 14.573 15.5 27.614m-13-13.041h49.762" fill="none" fill-rule="evenodd" stroke="#1B1F26" stroke-width="3"/></symbol><symbol viewBox="0 0 27.01 28.51" id="totop" xmlns="http://www.w3.org/2000/svg"><defs><style>.ecls-1{fill:#1b1f26}</style></defs><g id="eСлой_2" data-name="Слой 2"><path class="ecls-1" d="M0 16.51L13.51 0 27 16.51h-6v12H6v-12z" id="eСлой_1-2" data-name="Слой 1"/></g></symbol><symbol id="vk" viewBox="0 0 70 41" xmlns="http://www.w3.org/2000/svg"><style>.fst0{fill-rule:evenodd;clip-rule:evenodd;fill:#fff;enable-background:new}</style><path class="fst0" d="M34.2 40.8h4.2s1.3-.1 1.9-.9c.6-.7.6-1.9.6-1.9s-.1-5.8 2.5-6.6c2.6-.8 5.9 5.6 9.4 8 2.6 1.9 4.7 1.5 4.7 1.5l9.3-.1s4.9-.3 2.6-4.3c-.2-.3-1.3-2.9-7-8.3-5.9-5.6-5.1-4.7 2-14.3 4.3-5.9 6-9.5 5.5-11s-3.7-1.1-3.7-1.1l-10.5.1s-.8-.1-1.4.2c-.6.3-.9 1.2-.9 1.2s-1.7 4.6-3.9 8.4c-4.7 8.2-6.6 8.6-7.3 8.1-1.8-1.2-1.3-4.8-1.3-7.3 0-7.9 1.2-11.2-2.3-12.1-1.1-.3-2-.5-4.9-.5-3.8 0-6.9 0-8.7.9-1.2.6-2.1 1.9-1.6 2 .7.1 2.3.4 3.1 1.6 1.1 1.5 1 4.9 1 4.9s.6 9.3-1.4 10.5c-1.4.8-3.4-.8-7.5-8.2-2.1-3.8-3.8-8-3.8-8s-.3-.8-.9-1.2c-.7-.5-1.6-.7-1.6-.7l-10 .1s-1.5 0-2.1.7c-.5.6 0 1.8 0 1.8S8 23.2 16.9 32.7c8.1 8.7 17.3 8.1 17.3 8.1"/></symbol></svg>